<mxfile host="app.diagrams.net" agent="Mozilla/5.0 (Windows NT 10.0; Win64; x64) AppleWebKit/537.36 (KHTML, like Gecko) Chrome/129.0.0.0 Safari/537.36" version="24.7.13">
  <diagram name="Page-1" id="ON_Y23I0H8j0SEgHxItd">
    <mxGraphModel dx="1950" dy="1643" grid="1" gridSize="10" guides="1" tooltips="1" connect="1" arrows="1" fold="1" page="1" pageScale="1" pageWidth="850" pageHeight="1100" math="0" shadow="0">
      <root>
        <mxCell id="0" />
        <mxCell id="1" parent="0" />
        <mxCell id="7rGi2LFehUQXbUcGk5Sq-1" value="" style="endArrow=none;dashed=1;html=1;dashPattern=1 3;strokeWidth=2;rounded=0;" edge="1" parent="1">
          <mxGeometry width="50" height="50" relative="1" as="geometry">
            <mxPoint x="-60" y="620" as="sourcePoint" />
            <mxPoint x="-60" y="-2.2222222222222223" as="targetPoint" />
          </mxGeometry>
        </mxCell>
        <mxCell id="7rGi2LFehUQXbUcGk5Sq-2" value="" style="endArrow=none;dashed=1;html=1;dashPattern=1 3;strokeWidth=2;rounded=0;" edge="1" parent="1">
          <mxGeometry width="50" height="50" relative="1" as="geometry">
            <mxPoint x="680" y="622.22" as="sourcePoint" />
            <mxPoint x="680" y="-0.0022222222222225696" as="targetPoint" />
          </mxGeometry>
        </mxCell>
        <mxCell id="7rGi2LFehUQXbUcGk5Sq-5" value="VIEW" style="text;strokeColor=none;fillColor=none;html=1;fontSize=24;fontStyle=1;verticalAlign=middle;align=center;" vertex="1" parent="1">
          <mxGeometry x="-330" y="80" width="100" height="40" as="geometry" />
        </mxCell>
        <mxCell id="7rGi2LFehUQXbUcGk5Sq-6" value="BUSINESS&lt;div&gt;&lt;br&gt;&lt;/div&gt;" style="text;strokeColor=none;fillColor=none;html=1;fontSize=24;fontStyle=1;verticalAlign=middle;align=center;" vertex="1" parent="1">
          <mxGeometry x="340" y="-100" width="100" height="40" as="geometry" />
        </mxCell>
        <mxCell id="7rGi2LFehUQXbUcGk5Sq-7" value="INFRA&lt;div&gt;&lt;br&gt;&lt;/div&gt;" style="text;strokeColor=none;fillColor=none;html=1;fontSize=24;fontStyle=1;verticalAlign=middle;align=center;" vertex="1" parent="1">
          <mxGeometry x="720" y="70" width="100" height="40" as="geometry" />
        </mxCell>
        <mxCell id="7rGi2LFehUQXbUcGk5Sq-8" value="" style="rounded=0;whiteSpace=wrap;html=1;" vertex="1" parent="1">
          <mxGeometry x="-20" y="-50" width="690" height="510" as="geometry" />
        </mxCell>
        <mxCell id="7rGi2LFehUQXbUcGk5Sq-9" value="" style="rounded=0;whiteSpace=wrap;html=1;" vertex="1" parent="1">
          <mxGeometry x="180" y="500" width="490" height="310" as="geometry" />
        </mxCell>
        <mxCell id="7rGi2LFehUQXbUcGk5Sq-10" value="&lt;font style=&quot;font-size: 18px;&quot;&gt;CONTROL&lt;/font&gt;" style="text;strokeColor=none;fillColor=none;html=1;fontSize=24;fontStyle=1;verticalAlign=middle;align=center;" vertex="1" parent="1">
          <mxGeometry x="190" y="-40" width="100" height="40" as="geometry" />
        </mxCell>
        <mxCell id="7rGi2LFehUQXbUcGk5Sq-12" value="&lt;font style=&quot;font-size: 18px;&quot;&gt;MODEL&lt;/font&gt;" style="text;strokeColor=none;fillColor=none;html=1;fontSize=24;fontStyle=1;verticalAlign=middle;align=center;" vertex="1" parent="1">
          <mxGeometry x="180" y="500" width="100" height="40" as="geometry" />
        </mxCell>
        <mxCell id="7rGi2LFehUQXbUcGk5Sq-3" value="UsuarioController" style="html=1;whiteSpace=wrap;" vertex="1" parent="1">
          <mxGeometry x="200" y="270" width="110" height="50" as="geometry" />
        </mxCell>
        <mxCell id="7rGi2LFehUQXbUcGk5Sq-13" value="ValidarSenha" style="html=1;whiteSpace=wrap;" vertex="1" parent="1">
          <mxGeometry x="20" y="220" width="110" height="50" as="geometry" />
        </mxCell>
        <mxCell id="7rGi2LFehUQXbUcGk5Sq-14" value="ValidarLogin" style="html=1;whiteSpace=wrap;" vertex="1" parent="1">
          <mxGeometry x="20" y="140" width="110" height="50" as="geometry" />
        </mxCell>
        <mxCell id="7rGi2LFehUQXbUcGk5Sq-17" value="ValidarUsuario" style="html=1;whiteSpace=wrap;" vertex="1" parent="1">
          <mxGeometry x="200" y="190" width="110" height="50" as="geometry" />
        </mxCell>
        <mxCell id="7rGi2LFehUQXbUcGk5Sq-18" value="" style="endArrow=diamondThin;endFill=1;endSize=24;html=1;rounded=0;exitX=1;exitY=0.5;exitDx=0;exitDy=0;entryX=0.5;entryY=0;entryDx=0;entryDy=0;" edge="1" parent="1" source="7rGi2LFehUQXbUcGk5Sq-14" target="7rGi2LFehUQXbUcGk5Sq-17">
          <mxGeometry width="160" relative="1" as="geometry">
            <mxPoint x="320" y="340" as="sourcePoint" />
            <mxPoint x="480" y="340" as="targetPoint" />
            <Array as="points">
              <mxPoint x="245" y="165" />
            </Array>
          </mxGeometry>
        </mxCell>
        <mxCell id="7rGi2LFehUQXbUcGk5Sq-19" value="" style="endArrow=diamondThin;endFill=1;endSize=24;html=1;rounded=0;exitX=1;exitY=0.5;exitDx=0;exitDy=0;entryX=0;entryY=0.5;entryDx=0;entryDy=0;" edge="1" parent="1" source="7rGi2LFehUQXbUcGk5Sq-13" target="7rGi2LFehUQXbUcGk5Sq-17">
          <mxGeometry width="160" relative="1" as="geometry">
            <mxPoint x="510" y="210" as="sourcePoint" />
            <mxPoint x="620" y="270" as="targetPoint" />
            <Array as="points" />
          </mxGeometry>
        </mxCell>
        <mxCell id="7rGi2LFehUQXbUcGk5Sq-21" value="" style="endArrow=none;html=1;rounded=0;entryX=0.5;entryY=1;entryDx=0;entryDy=0;exitX=0.5;exitY=0;exitDx=0;exitDy=0;" edge="1" parent="1" source="7rGi2LFehUQXbUcGk5Sq-3" target="7rGi2LFehUQXbUcGk5Sq-17">
          <mxGeometry width="50" height="50" relative="1" as="geometry">
            <mxPoint x="380" y="370" as="sourcePoint" />
            <mxPoint x="430" y="320" as="targetPoint" />
          </mxGeometry>
        </mxCell>
        <mxCell id="7rGi2LFehUQXbUcGk5Sq-22" value="AvaliacaoController" style="html=1;whiteSpace=wrap;" vertex="1" parent="1">
          <mxGeometry x="130" y="360" width="110" height="50" as="geometry" />
        </mxCell>
        <mxCell id="7rGi2LFehUQXbUcGk5Sq-39" style="edgeStyle=orthogonalEdgeStyle;rounded=0;orthogonalLoop=1;jettySize=auto;html=1;dashed=1;endArrow=openThin;endFill=0;" edge="1" parent="1" source="7rGi2LFehUQXbUcGk5Sq-23" target="7rGi2LFehUQXbUcGk5Sq-37">
          <mxGeometry relative="1" as="geometry" />
        </mxCell>
        <mxCell id="7rGi2LFehUQXbUcGk5Sq-23" value="Facade" style="html=1;whiteSpace=wrap;" vertex="1" parent="1">
          <mxGeometry x="300" y="390" width="110" height="50" as="geometry" />
        </mxCell>
        <mxCell id="7rGi2LFehUQXbUcGk5Sq-33" style="edgeStyle=orthogonalEdgeStyle;rounded=0;orthogonalLoop=1;jettySize=auto;html=1;entryX=0.5;entryY=1;entryDx=0;entryDy=0;" edge="1" parent="1" source="7rGi2LFehUQXbUcGk5Sq-27" target="7rGi2LFehUQXbUcGk5Sq-23">
          <mxGeometry relative="1" as="geometry" />
        </mxCell>
        <mxCell id="7rGi2LFehUQXbUcGk5Sq-27" value="&lt;div&gt;&amp;lt;&amp;lt;entity&amp;gt;&amp;gt;&lt;/div&gt;Usuario" style="html=1;whiteSpace=wrap;" vertex="1" parent="1">
          <mxGeometry x="300" y="530" width="110" height="50" as="geometry" />
        </mxCell>
        <mxCell id="7rGi2LFehUQXbUcGk5Sq-32" style="edgeStyle=orthogonalEdgeStyle;rounded=0;orthogonalLoop=1;jettySize=auto;html=1;" edge="1" parent="1" source="7rGi2LFehUQXbUcGk5Sq-28" target="7rGi2LFehUQXbUcGk5Sq-27">
          <mxGeometry relative="1" as="geometry" />
        </mxCell>
        <mxCell id="7rGi2LFehUQXbUcGk5Sq-28" value="&lt;div&gt;&amp;lt;&amp;lt;entity&amp;gt;&amp;gt;&lt;/div&gt;&lt;div&gt;Condomino&lt;span style=&quot;color: rgba(0, 0, 0, 0); font-family: monospace; font-size: 0px; text-align: start; text-wrap: nowrap; background-color: initial;&quot;&gt;%3CmxGraphModel%3E%3Croot%3E%3CmxCell%20id%3D%220%22%2F%3E%3CmxCell%20id%3D%221%22%20parent%3D%220%22%2F%3E%3CmxCell%20id%3D%222%22%20value%3D%22%26lt%3Bdiv%26gt%3B%26amp%3Blt%3B%26amp%3Blt%3Bentity%26amp%3Bgt%3B%26amp%3Bgt%3B%26lt%3B%2Fdiv%26gt%3BUsuario%22%20style%3D%22html%3D1%3BwhiteSpace%3Dwrap%3B%22%20vertex%3D%221%22%20parent%3D%221%22%3E%3CmxGeometry%20x%3D%22360%22%20y%3D%22530%22%20width%3D%22110%22%20height%3D%2250%22%20as%3D%22geometry%22%2F%3E%3C%2FmxCell%3E%3C%2Froot%3E%3C%2FmxGraphModel%3E&lt;/span&gt;&lt;/div&gt;" style="html=1;whiteSpace=wrap;" vertex="1" parent="1">
          <mxGeometry x="390" y="620" width="110" height="50" as="geometry" />
        </mxCell>
        <mxCell id="7rGi2LFehUQXbUcGk5Sq-31" style="edgeStyle=orthogonalEdgeStyle;rounded=0;orthogonalLoop=1;jettySize=auto;html=1;" edge="1" parent="1" source="7rGi2LFehUQXbUcGk5Sq-29" target="7rGi2LFehUQXbUcGk5Sq-27">
          <mxGeometry relative="1" as="geometry" />
        </mxCell>
        <mxCell id="7rGi2LFehUQXbUcGk5Sq-29" value="&lt;div&gt;&amp;lt;&amp;lt;entity&amp;gt;&amp;gt;&lt;/div&gt;&lt;div style=&quot;text-align: center;&quot;&gt;&lt;span style=&quot;text-align: start; background-color: initial;&quot;&gt;Prestador&lt;/span&gt;&lt;span style=&quot;background-color: initial; color: rgba(0, 0, 0, 0); font-family: monospace; font-size: 0px; text-align: start; text-wrap: nowrap;&quot;&gt;%3CmxGraphModel%3E%3Croot%3E%3CmxCell%20id%3D%220%22%2F%3E%3CmxCell%20id%3D%221%22%20parent%3D%220%22%2F%3E%3CmxCell%20id%3D%222%22%20value%3D%22%26lt%3Bdiv%26gt%3B%26amp%3Blt%3B%26amp%3Blt%3Bentity%26amp%3Bgt%3B%26amp%3Bgt%3B%26lt%3B%2Fdiv%26gt%3BUsuario%22%20style%3D%22html%3D1%3BwhiteSpace%3Dwrap%3B%22%20vertex%3D%221%22%20parent%3D%221%22%3E%3CmxGeometry%20x%3D%22360%22%20y%3D%22530%22%20width%3D%22110%22%20height%3D%2250%22%20as%3D%22geometry%22%2F%3E%3C%2FmxCell%3E%3C%2Froot%3E%3C%2FmxGraphModel&lt;/span&gt;&lt;/div&gt;" style="html=1;whiteSpace=wrap;" vertex="1" parent="1">
          <mxGeometry x="210" y="620" width="110" height="50" as="geometry" />
        </mxCell>
        <mxCell id="7rGi2LFehUQXbUcGk5Sq-30" value="&lt;div&gt;&amp;lt;&amp;lt;entity&amp;gt;&amp;gt;&lt;/div&gt;&lt;div style=&quot;text-align: center;&quot;&gt;&lt;span style=&quot;text-align: start; background-color: initial;&quot;&gt;Avaliacao&lt;/span&gt;&lt;span style=&quot;color: rgba(0, 0, 0, 0); font-family: monospace; font-size: 0px; text-align: start; text-wrap: nowrap; background-color: initial;&quot;&gt;%3CmxGraphModel%3E%3Croot%3E%3CmxCell%20id%3D%220%22%2F%3E%3CmxCell%20id%3D%221%22%20parent%3D%220%22%2F%3E%3CmxCell%20id%3D%222%22%20value%3D%22%26lt%3Bdiv%26gt%3B%26amp%3Blt%3B%26amp%3Blt%3Bentity%26amp%3Bgt%3B%26amp%3Bgt%3B%26lt%3B%2Fdiv%26gt%3BUsuario%22%20style%3D%22html%3D1%3BwhiteSpace%3Dwrap%3B%22%20vertex%3D%221%22%20parent%3D%221%22%3E%3CmxGeometry%20x%3D%22360%22%20y%3D%22530%22%20width%3D%22110%22%20height%3D%2250%22%20as%3D%22geometry%22%2F%3E%3C%2FmxCell%3E%3C%2Froot%3E%3C%2FmxGraphModel%3E&lt;/span&gt;&lt;/div&gt;" style="html=1;whiteSpace=wrap;" vertex="1" parent="1">
          <mxGeometry x="530" y="530" width="110" height="50" as="geometry" />
        </mxCell>
        <mxCell id="7rGi2LFehUQXbUcGk5Sq-35" value="" style="endArrow=diamondThin;endFill=1;endSize=24;html=1;rounded=0;exitX=0.5;exitY=1;exitDx=0;exitDy=0;entryX=0;entryY=0.75;entryDx=0;entryDy=0;" edge="1" parent="1" source="7rGi2LFehUQXbUcGk5Sq-22" target="7rGi2LFehUQXbUcGk5Sq-23">
          <mxGeometry width="160" relative="1" as="geometry">
            <mxPoint x="475" y="220" as="sourcePoint" />
            <mxPoint x="300" y="430" as="targetPoint" />
            <Array as="points">
              <mxPoint x="185" y="428" />
            </Array>
          </mxGeometry>
        </mxCell>
        <mxCell id="7rGi2LFehUQXbUcGk5Sq-36" value="" style="endArrow=diamondThin;endFill=1;endSize=24;html=1;rounded=0;exitX=0.5;exitY=1;exitDx=0;exitDy=0;entryX=0;entryY=0.25;entryDx=0;entryDy=0;" edge="1" parent="1" source="7rGi2LFehUQXbUcGk5Sq-3" target="7rGi2LFehUQXbUcGk5Sq-23">
          <mxGeometry width="160" relative="1" as="geometry">
            <mxPoint x="255" y="220" as="sourcePoint" />
            <mxPoint x="310" y="265" as="targetPoint" />
            <Array as="points">
              <mxPoint x="250" y="350" />
            </Array>
          </mxGeometry>
        </mxCell>
        <mxCell id="7rGi2LFehUQXbUcGk5Sq-37" value="UsuarioService" style="html=1;whiteSpace=wrap;" vertex="1" parent="1">
          <mxGeometry x="390" y="240" width="110" height="50" as="geometry" />
        </mxCell>
        <mxCell id="7rGi2LFehUQXbUcGk5Sq-40" value="APIRouter" style="html=1;whiteSpace=wrap;" vertex="1" parent="1">
          <mxGeometry x="520" y="240" width="110" height="50" as="geometry" />
        </mxCell>
        <mxCell id="7rGi2LFehUQXbUcGk5Sq-41" style="rounded=0;orthogonalLoop=1;jettySize=auto;html=1;dashed=1;endArrow=openThin;endFill=0;exitX=1;exitY=0.75;exitDx=0;exitDy=0;entryX=0;entryY=0.5;entryDx=0;entryDy=0;" edge="1" parent="1" source="7rGi2LFehUQXbUcGk5Sq-23" target="7rGi2LFehUQXbUcGk5Sq-42">
          <mxGeometry relative="1" as="geometry">
            <mxPoint x="365" y="400" as="sourcePoint" />
            <mxPoint x="365" y="180" as="targetPoint" />
          </mxGeometry>
        </mxCell>
        <mxCell id="7rGi2LFehUQXbUcGk5Sq-42" value="UsuarioRepositoryFactory" style="html=1;whiteSpace=wrap;" vertex="1" parent="1">
          <mxGeometry x="770" y="400" width="180" height="50" as="geometry" />
        </mxCell>
        <mxCell id="7rGi2LFehUQXbUcGk5Sq-44" value="" style="endArrow=diamondThin;endFill=0;endSize=24;html=1;rounded=0;entryX=0.5;entryY=1;entryDx=0;entryDy=0;exitX=1;exitY=0.5;exitDx=0;exitDy=0;" edge="1" parent="1" source="7rGi2LFehUQXbUcGk5Sq-23" target="7rGi2LFehUQXbUcGk5Sq-40">
          <mxGeometry width="160" relative="1" as="geometry">
            <mxPoint x="400" y="300" as="sourcePoint" />
            <mxPoint x="560" y="300" as="targetPoint" />
          </mxGeometry>
        </mxCell>
        <mxCell id="7rGi2LFehUQXbUcGk5Sq-45" value="UsuarioRepositoryInterface" style="html=1;whiteSpace=wrap;" vertex="1" parent="1">
          <mxGeometry x="990" y="400" width="180" height="50" as="geometry" />
        </mxCell>
        <mxCell id="7rGi2LFehUQXbUcGk5Sq-46" value="UsuarioRepositoryInMemory&lt;span style=&quot;color: rgba(0, 0, 0, 0); font-family: monospace; font-size: 0px; text-align: start; text-wrap: nowrap;&quot;&gt;%3CmxGraphModel%3E%3Croot%3E%3CmxCell%20id%3D%220%22%2F%3E%3CmxCell%20id%3D%221%22%20parent%3D%220%22%2F%3E%3CmxCell%20id%3D%222%22%20value%3D%22UsuarioRepositoryInterface%22%20style%3D%22html%3D1%3BwhiteSpace%3Dwrap%3B%22%20vertex%3D%221%22%20parent%3D%221%22%3E%3CmxGeometry%20x%3D%22990%22%20y%3D%22310%22%20width%3D%22180%22%20height%3D%2250%22%20as%3D%22geometry%22%2F%3E%3C%2FmxCell%3E%3C%2Froot%3E%3C%2FmxGraphModel%3E&lt;/span&gt;" style="html=1;whiteSpace=wrap;" vertex="1" parent="1">
          <mxGeometry x="990" y="490" width="180" height="50" as="geometry" />
        </mxCell>
        <mxCell id="7rGi2LFehUQXbUcGk5Sq-47" value="UsuarioRepositoryInDB" style="html=1;whiteSpace=wrap;" vertex="1" parent="1">
          <mxGeometry x="990" y="310" width="180" height="50" as="geometry" />
        </mxCell>
      </root>
    </mxGraphModel>
  </diagram>
</mxfile>
